<?xml version="1.0" standalone="no"?>
<!DOCTYPE svg PUBLIC "-//W3C//DTD SVG 20010904//EN"
 "http://www.w3.org/TR/2001/REC-SVG-20010904/DTD/svg10.dtd">
<svg version="1.0" xmlns="http://www.w3.org/2000/svg"
 width="148.000000pt" height="68.000000pt" viewBox="0 0 148.000000 68.000000"
 preserveAspectRatio="xMidYMid meet">

<g transform="translate(0.000000,68.000000) scale(0.100000,-0.100000)"
fill="#000000" stroke="none">
<path d="M0 360 l0 -320 44 0 c38 0 45 3 54 28 33 81 222 597 222 604 0 4 -72
8 -160 8 l-160 0 0 -320z"/>
<path d="M465 363 l113 -318 46 -3 c38 -3 46 -7 46 -23 0 -14 7 -19 25 -19 18
0 25 5 25 20 0 17 7 20 50 20 l50 0 0 295 0 295 -50 0 c-43 0 -50 3 -50 20 0
19 7 20 123 20 l123 0 64 -212 c35 -117 66 -216 70 -221 4 -4 21 41 39 100 18
60 48 158 67 220 l35 112 122 4 c67 1 -133 4 -444 5 l-566 2 112 -317z"/>
<path d="M1380 335 l0 -295 50 0 50 0 0 295 0 295 -50 0 -50 0 0 -295z"/>
<path d="M851 333 l-1 -293 50 0 c43 0 50 -3 50 -20 0 -17 7 -20 45 -20 42 0
45 2 40 22 -3 13 -46 153 -95 313 l-89 290 0 -292z"/>
<path d="M1227 508 c-15 -51 -56 -186 -91 -301 l-64 -207 44 0 c37 0 44 3 44
20 0 17 7 20 50 20 l50 0 0 280 c0 154 -1 280 -3 280 -2 0 -15 -42 -30 -92z"/>
<path d="M244 355 l-41 -115 87 0 87 0 -40 115 c-23 63 -43 115 -46 115 -3 0
-24 -52 -47 -115z"/>
<path d="M174 163 c-9 -27 -23 -63 -31 -82 -7 -18 -13 -35 -13 -37 0 -2 25 -4
55 -4 48 0 55 -2 55 -20 0 -18 7 -20 55 -20 48 0 55 3 55 19 0 17 8 20 48 23
l48 3 -29 83 -30 82 -98 0 -97 0 -18 -47z"/>
</g>
</svg>
