<svg version="1.1" id="Layer_1" xmlns="http://www.w3.org/2000/svg" xmlns:xlink="http://www.w3.org/1999/xlink" x="0px" y="0px"
	 width="100%" viewBox="0 0 148 68" enable-background="new 0 0 148 68" xml:space="preserve">
<path fill="#FFFFFF" opacity="1.000000" stroke="none" 
	d="
M149.000000,65.000000 
	C149.000000,66.316910 149.000000,67.633812 149.000000,69.000000 
	C138.645813,69.000000 128.291565,69.000000 117.468681,68.555748 
	C117.772621,67.074661 118.413780,65.311501 119.343506,65.143288 
	C121.708313,64.715431 124.202202,65.000992 126.818024,65.000992 
	C126.818024,46.207996 126.818024,27.835108 126.818024,9.431208 
	C126.542343,9.624474 126.144119,9.748823 126.074646,9.974415 
	C121.041039,26.319033 115.983360,42.656628 111.066711,59.036537 
	C110.095284,62.272888 109.674652,65.674568 109.000000,69.000000 
	C107.933327,69.000000 106.866661,69.000000 105.396317,68.599426 
	C98.827202,47.939926 92.661751,27.681004 86.314552,6.824876 
	C86.314552,26.615662 86.314552,45.745720 86.314552,65.195511 
	C89.719971,65.195511 92.810143,65.195511 96.000000,65.195511 
	C96.000000,66.679245 96.000000,67.839622 96.000000,69.000000 
	C88.645744,69.000000 81.291496,69.000000 73.468643,68.555748 
	C72.687515,65.945793 73.180527,64.679962 75.815544,64.952087 
	C78.066505,65.184532 80.360527,65.000160 82.703766,65.000160 
	C82.703766,45.115551 82.703766,25.643175 82.703766,5.814819 
	C79.324341,5.814819 76.235481,5.814819 73.000000,5.814819 
	C73.000000,3.968489 73.000000,2.484244 73.000000,1.000000 
	C81.020897,1.000000 89.041801,1.000000 97.216904,1.329385 
	C101.906265,16.415499 106.441429,31.172226 111.329712,47.077969 
	C114.487267,36.564293 117.269791,27.365393 120.009209,18.153677 
	C121.706642,12.445847 123.338631,6.718554 125.000000,1.000000 
	C133.000046,1.000000 141.000107,1.000000 149.000000,1.000000 
	C149.000000,2.380186 149.000000,3.690131 148.539612,5.500038 
	C145.150711,6.000000 142.222183,6.000000 139.296692,6.000000 
	C139.296692,25.932619 139.296692,45.390152 139.296692,65.000000 
	C142.727661,65.000000 145.863831,65.000000 149.000000,65.000000 
z"/>
<path fill="#000000" opacity="1.000000" stroke="none" 
	d="
M72.531342,1.000000 
	C73.000000,2.484244 73.000000,3.968489 73.000000,5.814819 
	C76.235481,5.814819 79.324341,5.814819 82.703766,5.814819 
	C82.703766,25.643175 82.703766,45.115551 82.703766,65.000160 
	C80.360527,65.000160 78.066505,65.184532 75.815544,64.952087 
	C73.180527,64.679962 72.687515,65.945793 73.000023,68.555748 
	C71.611107,69.000000 70.222221,69.000000 68.416641,68.558372 
	C68.720604,64.108109 65.791664,64.764717 63.711380,65.066711 
	C59.915112,65.617828 58.225025,63.971302 57.078480,60.507610 
	C53.366753,49.294567 49.325882,38.190987 45.527866,27.005827 
	C42.594788,18.367931 39.836174,9.670797 37.000000,1.000000 
	C48.687561,1.000000 60.375122,1.000000 72.531342,1.000000 
z"/>
<path fill="#000000" opacity="1.000000" stroke="none" 
	d="
M1.000000,65.000000 
	C1.000000,43.764359 1.000000,22.528715 1.000000,1.000000 
	C11.352386,1.000000 21.707535,1.000000 32.531235,1.399264 
	C32.905796,2.433553 32.922127,3.109947 32.701771,3.697591 
	C26.155331,21.155729 19.461145,38.559727 13.071354,56.074818 
	C9.848091,64.910118 10.094464,65.000000 1.000000,65.000000 
z"/>
<path fill="#FFFFFF" opacity="1.000000" stroke="none" 
	d="
M1.000000,65.500000 
	C10.094464,65.000000 9.848091,64.910118 13.071354,56.074818 
	C19.461145,38.559727 26.155331,21.155729 32.701771,3.697591 
	C32.922127,3.109947 32.905796,2.433553 32.999893,1.399264 
	C34.066669,1.000000 35.133339,1.000000 36.600006,1.000000 
	C39.836174,9.670797 42.594788,18.367931 45.527866,27.005827 
	C49.325882,38.190987 53.366753,49.294567 57.078480,60.507610 
	C58.225025,63.971302 59.915112,65.617828 63.711380,65.066711 
	C65.791664,64.764717 68.720604,64.108109 67.999985,68.558372 
	C57.645771,69.000000 47.291546,69.000000 36.468678,68.557877 
	C36.770073,67.077507 37.406761,65.314468 38.336342,65.143456 
	C40.675831,64.713036 43.147491,65.001030 45.621365,65.001030 
	C43.987186,59.970619 42.645561,55.179867 40.795094,50.594456 
	C40.313335,49.400677 38.295834,48.234802 36.894344,48.116734 
	C32.934990,47.783176 28.883747,48.373466 24.954678,47.894505 
	C21.059837,47.419720 19.336351,49.332924 18.242334,52.423199 
	C16.813301,56.459793 15.538535,60.551003 14.047951,65.071999 
	C17.780870,65.071999 21.343655,65.071999 25.000000,65.071999 
	C25.000000,66.677727 25.000000,67.838867 25.000000,69.000000 
	C16.999969,69.000000 8.999939,69.000000 1.000000,69.000000 
	C1.000000,67.963631 1.000000,66.981819 1.000000,65.500000 
M29.043421,22.682484 
	C26.541872,30.070145 24.040321,37.457806 21.547235,44.820473 
	C27.160017,44.820473 32.842960,44.820473 38.493492,44.820473 
	C37.574986,41.937141 36.871452,39.143242 35.801628,36.497452 
	C33.836861,31.638363 31.656303,26.866528 29.043421,22.682484 
z"/>
<path fill="#000000" opacity="1.000000" stroke="none" 
	d="
M124.531342,1.000000 
	C123.338631,6.718554 121.706642,12.445847 120.009209,18.153677 
	C117.269791,27.365393 114.487267,36.564293 111.329712,47.077969 
	C106.441429,31.172226 101.906265,16.415499 97.685555,1.329385 
	C106.687561,1.000000 115.375130,1.000000 124.531342,1.000000 
z"/>
<path fill="#000000" opacity="1.000000" stroke="none" 
	d="
M149.000000,64.531342 
	C145.863831,65.000000 142.727661,65.000000 139.296692,65.000000 
	C139.296692,45.390152 139.296692,25.932619 139.296692,6.000000 
	C142.222183,6.000000 145.150711,6.000000 148.539612,6.000000 
	C149.000000,25.354227 149.000000,44.708454 149.000000,64.531342 
z"/>
<path fill="#000000" opacity="1.000000" stroke="none" 
	d="
M96.449982,69.000000 
	C96.000000,67.839622 96.000000,66.679245 96.000000,65.195511 
	C92.810143,65.195511 89.719971,65.195511 86.314552,65.195511 
	C86.314552,45.745720 86.314552,26.615662 86.314552,6.824876 
	C92.661751,27.681004 98.827202,47.939926 104.996323,68.599426 
	C102.299988,69.000000 99.599968,69.000000 96.449982,69.000000 
z"/>
<path fill="#000000" opacity="1.000000" stroke="none" 
	d="
M109.444168,69.000000 
	C109.674652,65.674568 110.095284,62.272888 111.066711,59.036537 
	C115.983360,42.656628 121.041039,26.319033 126.074646,9.974415 
	C126.144119,9.748823 126.542343,9.624474 126.818024,9.431208 
	C126.818024,27.835108 126.818024,46.207996 126.818024,65.000992 
	C124.202202,65.000992 121.708313,64.715431 119.343506,65.143288 
	C118.413780,65.311501 117.772621,67.074661 117.000023,68.555748 
	C114.629440,69.000000 112.258888,69.000000 109.444168,69.000000 
z"/>
<path fill="#000000" opacity="1.000000" stroke="none" 
	d="
M25.458069,69.000000 
	C25.000000,67.838867 25.000000,66.677727 25.000000,65.071999 
	C21.343655,65.071999 17.780870,65.071999 14.047951,65.071999 
	C15.538535,60.551003 16.813301,56.459793 18.242334,52.423199 
	C19.336351,49.332924 21.059837,47.419720 24.954678,47.894505 
	C28.883747,48.373466 32.934990,47.783176 36.894344,48.116734 
	C38.295834,48.234802 40.313335,49.400677 40.795094,50.594456 
	C42.645561,55.179867 43.987186,59.970619 45.621365,65.001030 
	C43.147491,65.001030 40.675831,64.713036 38.336342,65.143456 
	C37.406761,65.314468 36.770073,67.077507 36.000019,68.557877 
	C32.638714,69.000000 29.277426,69.000000 25.458069,69.000000 
z"/>
<path fill="#000000" opacity="1.000000" stroke="none" 
	d="
M29.304562,22.370403 
	C31.656303,26.866528 33.836861,31.638363 35.801628,36.497452 
	C36.871452,39.143242 37.574986,41.937141 38.493492,44.820473 
	C32.842960,44.820473 27.160017,44.820473 21.547235,44.820473 
	C24.040321,37.457806 26.541872,30.070145 29.304562,22.370403 
z"/>
</svg>